# xmcd
#
# Track frame offsets:
#	150
#	17770
#	34787
#	50249
#	62678
#	80709
#	93449
#	106121
#	116994
#	132035
#	149502
#	162905
#
# Disc length: 2437 seconds
#
# Revision: 1
# Processed by: cddbd v1.4PL0 Copyright (c) Steve Scherf et al.
# Submitted via: EasyCDDAExtractor 5.0.7
#
DISCID=a709830c
DTITLE=Ligação Direta - Longa Estrada
DYEAR=1900
DGENRE=Blues
TTITLE0=Jawa 52
TTITLE1=Longa Estrada
TTITLE2=Rose
TTITLE3=BR 101
TTITLE4=Um Pouco Mais
TTITLE5=Vá Pastar
TTITLE6=Maluco de BR
TTITLE7=É Domingo
TTITLE8=Só É
TTITLE9=Sacação
TTITLE10=Isso Vai Ser Muito Bom
TTITLE11=Carcarás - O Hino
EXTD=
EXTT0=
EXTT1=
EXTT2=
EXTT3=
EXTT4=
EXTT5=
EXTT6=
EXTT7=
EXTT8=
EXTT9=
EXTT10=
EXTT11=
PLAYORDER=
